<svg xmlns="http://www.w3.org/2000/svg"><symbol id="search" viewBox="0 0 24 24"><circle cx="11" cy="11" r="7"/><path d="m20 20-4-4"/></symbol><symbol id="menu" viewBox="0 0 24 24"><path d="M4 7h16M4 12h16M4 17h16"/></symbol><symbol id="close" viewBox="0 0 24 24"><path d="m6 6 12 12M18 6 6 18"/></symbol><symbol id="arrow-right" viewBox="0 0 24 24"><path d="M5 12h14m-6-6 6 6-6 6"/></symbol><symbol id="arrow-up" viewBox="0 0 24 24"><path d="M12 19V5m-6 6 6-6 6 6"/></symbol><symbol id="calendar" viewBox="0 0 24 24"><rect x="3" y="5" width="18" height="16" rx="2"/><path d="M16 3v4M8 3v4M3 10h18"/></symbol><symbol id="location" viewBox="0 0 24 24"><path d="M20 10c0 5-8 11-8 11S4 15 4 10a8 8 0 1 1 16 0Z"/><circle cx="12" cy="10" r="2"/></symbol><symbol id="mail" viewBox="0 0 24 24"><rect x="3" y="5" width="18" height="14" rx="2"/><path d="m3 7 9 6 9-6"/></symbol><symbol id="camera" viewBox="0 0 24 24"><path d="M14.5 5 13 3h-2L9.5 5H5a2 2 0 0 0-2 2v11h18V7a2 2 0 0 0-2-2Z"/><circle cx="12" cy="12" r="4"/></symbol><symbol id="shield" viewBox="0 0 24 24"><path d="M12 3 20 6v5c0 5-3.5 8.5-8 10-4.5-1.5-8-5-8-10V6Z"/><path d="m9 12 2 2 4-4"/></symbol><symbol id="user" viewBox="0 0 24 24"><circle cx="12" cy="8" r="4"/><path d="M4 21a8 8 0 0 1 16 0"/></symbol></svg>
